<?xml version="1.0" encoding="utf-8"?>
<!-- Generator: Adobe Illustrator 27.5.0, SVG Export Plug-In . SVG Version: 6.00 Build 0)  -->
<svg version="1.1" xmlns="http://www.w3.org/2000/svg" xmlns:xlink="http://www.w3.org/1999/xlink" x="0px" y="0px"
	 viewBox="0 0 500 500" style="enable-background:new 0 0 500 500;" xml:space="preserve">
<g id="Background_Complete">
	<g>
		<rect y="382.398" style="fill:#EBEBEB;" width="500" height="0.25"/>
		<rect x="359" y="391.922" style="fill:#EBEBEB;" width="90.901" height="0.25"/>
		<rect x="306.333" y="389.208" style="fill:#EBEBEB;" width="24.887" height="0.25"/>
		<rect x="349.524" y="401.208" style="fill:#EBEBEB;" width="38.587" height="0.25"/>
		<rect x="52.459" y="399.528" style="fill:#EBEBEB;" width="22.638" height="0.25"/>
		<rect x="84" y="399.528" style="fill:#EBEBEB;" width="26.889" height="0.25"/>
		<rect x="178.309" y="395.306" style="fill:#EBEBEB;" width="46.838" height="0.25"/>
		<path style="fill:#EBEBEB;" d="M237.014,337.8H43.915c-3.147,0-5.708-2.561-5.708-5.708V60.66c0-3.147,2.561-5.708,5.708-5.708
			h193.099c3.146,0,5.707,2.561,5.707,5.708v271.432C242.721,335.239,240.16,337.8,237.014,337.8z M43.915,55.203
			c-3.01,0-5.458,2.448-5.458,5.458v271.432c0,3.01,2.448,5.458,5.458,5.458h193.099c3.009,0,5.457-2.448,5.457-5.458V60.66
			c0-3.009-2.448-5.458-5.457-5.458H43.915z"/>
		<path style="fill:#EBEBEB;" d="M453.31,337.8H260.212c-3.147,0-5.707-2.561-5.707-5.708V60.66c0-3.147,2.561-5.708,5.707-5.708
			H453.31c3.148,0,5.708,2.561,5.708,5.708v271.432C459.019,335.239,456.458,337.8,453.31,337.8z M260.212,55.203
			c-3.009,0-5.457,2.448-5.457,5.458v271.432c0,3.01,2.448,5.458,5.457,5.458H453.31c3.01,0,5.458-2.448,5.458-5.458V60.66
			c0-3.009-2.448-5.458-5.458-5.458H260.212z"/>
	</g>
	<g>
		<g>
			
				<rect x="316.492" y="79.797" transform="matrix(-1 -1.224647e-16 1.224647e-16 -1 737.9098 276.1734)" style="fill:#E6E6E6;" width="104.926" height="116.579"/>
			
				<rect x="294.04" y="79.797" transform="matrix(-1 -1.224647e-16 1.224647e-16 -1 710.6182 276.1734)" style="fill:#F5F5F5;" width="122.538" height="116.579"/>
			
				<rect x="304.51" y="88.859" transform="matrix(-1.836970e-16 1 -1 -1.836970e-16 493.3959 -217.2224)" style="fill:#FFFFFF;" width="101.598" height="98.456"/>
			
				<rect x="303.21" y="137.449" transform="matrix(-1.836970e-16 1 -1 -1.836970e-16 493.3959 -217.2224)" style="fill:#F5F5F5;" width="104.199" height="1.276"/>
		</g>
		<g>
			
				<rect x="81.113" y="86.384" transform="matrix(-1 -1.224647e-16 1.224647e-16 -1 296.2659 443.1687)" style="fill:#E6E6E6;" width="134.04" height="270.401"/>
			
				<rect x="71.801" y="86.384" transform="matrix(-1 -1.224647e-16 1.224647e-16 -1 284.4791 443.1687)" style="fill:#F0F0F0;" width="140.878" height="270.401"/>
			
				<rect x="18.841" y="162.948" transform="matrix(-1.836970e-16 1 -1 -1.836970e-16 363.824 79.3447)" style="fill:#FFFFFF;" width="246.797" height="117.273"/>
			<polygon style="fill:#FAFAFA;" points="127.836,344.983 150.973,98.186 124.268,98.186 101.131,344.983 			"/>
			<polygon style="fill:#FAFAFA;" points="148.529,344.983 171.666,98.186 158.314,98.186 135.176,344.983 			"/>
		</g>
		<g>
			<g>
				<g>
					
						<rect x="265.857" y="276.507" transform="matrix(-1 -1.224647e-16 1.224647e-16 -1 556.7644 658.9061)" style="fill:#E6E6E6;" width="25.051" height="105.892"/>
					<polygon style="fill:#FAFAFA;" points="280.431,382.399 265.857,382.399 265.857,367.781 295.711,367.781 					"/>
					
						<rect x="414.667" y="276.507" transform="matrix(-1 -1.224647e-16 1.224647e-16 -1 854.384 658.9061)" style="fill:#E6E6E6;" width="25.051" height="105.892"/>
					
						<rect x="265.857" y="276.507" transform="matrix(-1 -1.224647e-16 1.224647e-16 -1 693.2426 653.8746)" style="fill:#FAFAFA;" width="161.529" height="100.861"/>
					<polygon style="fill:#FAFAFA;" points="412.812,382.399 427.386,382.399 427.386,367.781 397.531,367.781 					"/>
					
						<rect x="277.163" y="314.091" transform="matrix(-1 -1.224647e-16 1.224647e-16 -1 693.2426 653.4225)" style="fill:#F0F0F0;" width="138.917" height="25.241"/>
					
						<rect x="277.163" y="344.727" transform="matrix(-1 -1.224647e-16 1.224647e-16 -1 693.2426 714.6938)" style="fill:#F0F0F0;" width="138.917" height="25.241"/>
					<path style="fill:#FAFAFA;" d="M303.567,316.79h86.108c2.527,0,4.576-2.049,4.576-4.577v-0.308h-95.261v0.308
						C298.991,314.741,301.04,316.79,303.567,316.79z"/>
					
						<rect x="277.163" y="283.455" transform="matrix(-1 -1.224647e-16 1.224647e-16 -1 693.2426 592.1511)" style="fill:#F0F0F0;" width="138.917" height="25.241"/>
					<path style="fill:#FAFAFA;" d="M303.567,286.154h86.108c2.527,0,4.576-2.049,4.576-4.577v-0.308h-95.261v0.308
						C298.991,284.105,301.04,286.154,303.567,286.154z"/>
					<path style="fill:#FAFAFA;" d="M303.567,347.425h86.108c2.527,0,4.576-2.049,4.576-4.576v-0.308h-95.261v0.308
						C298.991,345.376,301.04,347.425,303.567,347.425z"/>
				</g>
			</g>
			<g>
				
					<rect x="292.331" y="228.92" transform="matrix(-1 -1.224647e-16 1.224647e-16 -1 589.5992 503.6634)" style="fill:#F5F5F5;" width="4.938" height="45.823"/>
				
					<rect x="292.967" y="228.882" transform="matrix(-1 -1.224647e-16 1.224647e-16 -1 587.328 503.5874)" style="fill:#FAFAFA;" width="1.395" height="45.823"/>
				<path style="fill:#F0F0F0;" d="M283.915,276.507h21.77l0,0c0-1.515-1.228-2.743-2.743-2.743h-16.284
					C285.143,273.764,283.915,274.992,283.915,276.507L283.915,276.507z"/>
				<path style="fill:#F0F0F0;" d="M285.335,261.439L285.335,261.439c0.781,0,1.42-0.639,1.42-1.42v-25.28
					c0-0.781-0.639-1.42-1.42-1.42l0,0c-0.781,0-1.42,0.639-1.42,1.42v25.28C283.915,260.8,284.554,261.439,285.335,261.439z"/>
				<path style="fill:#E0E0E0;" d="M272.697,241.052h44.206l-1.577-4.358c-2.105-5.818-7.63-9.694-13.817-9.694h-13.417
					c-6.187,0-11.712,3.876-13.817,9.694L272.697,241.052z"/>
			</g>
			<g>
				
					<rect x="405.397" y="228.92" transform="matrix(-1 -1.224647e-16 1.224647e-16 -1 815.7312 503.6634)" style="fill:#F5F5F5;" width="4.938" height="45.823"/>
				
					<rect x="406.033" y="228.882" transform="matrix(-1 -1.224647e-16 1.224647e-16 -1 813.46 503.5874)" style="fill:#FAFAFA;" width="1.395" height="45.823"/>
				<path style="fill:#F0F0F0;" d="M396.981,276.507h21.77l0,0c0-1.515-1.228-2.743-2.743-2.743h-16.284
					C398.209,273.764,396.981,274.992,396.981,276.507L396.981,276.507z"/>
				<path style="fill:#F0F0F0;" d="M398.401,261.439L398.401,261.439c0.781,0,1.42-0.639,1.42-1.42v-25.28
					c0-0.781-0.639-1.42-1.42-1.42l0,0c-0.781,0-1.42,0.639-1.42,1.42v25.28C396.981,260.8,397.62,261.439,398.401,261.439z"/>
				<path style="fill:#E0E0E0;" d="M385.763,241.052h44.206l-1.577-4.358c-2.105-5.818-7.63-9.694-13.817-9.694h-13.417
					c-6.187,0-11.712,3.876-13.817,9.694L385.763,241.052z"/>
			</g>
		</g>
	</g>
</g>
<g id="Background_Simple" style="display:none;">
	<g style="display:inline;">
		<path style="fill:#407BFF;" d="M128.67,346.249c31.563,18.338,74.038,21.304,109.319,12.379
			c17.741-4.488,30.917-13.853,46.208-22.782c21.423-12.509,37.44-11.188,61.433-12.603c69.83-4.119,89.799-71.305,82.294-117.835
			c-9.126-56.581-60.807-101.188-122.641-105.914c-41.637-3.182-80.088,2.627-112.679,20.416
			c-25.449,13.89-28.332,35.803-32.484,61.177c-3.171,19.377-5.189,40.994-17.115,57.762c-10.904,15.331-26.752,6.479-40.636,16.972
			C67.026,282.53,102.088,330.804,128.67,346.249z"/>
		<path style="opacity:0.9;fill:#FFFFFF;" d="M128.67,346.249c31.563,18.338,74.038,21.304,109.319,12.379
			c17.741-4.488,30.917-13.853,46.208-22.782c21.423-12.509,37.44-11.188,61.433-12.603c69.83-4.119,89.799-71.305,82.294-117.835
			c-9.126-56.581-60.807-101.188-122.641-105.914c-41.637-3.182-80.088,2.627-112.679,20.416
			c-25.449,13.89-28.332,35.803-32.484,61.177c-3.171,19.377-5.189,40.994-17.115,57.762c-10.904,15.331-26.752,6.479-40.636,16.972
			C67.026,282.53,102.088,330.804,128.67,346.249z"/>
	</g>
</g>
<g id="Shadow_1_">
	<ellipse id="_x3C_Path_x3E__138_" style="fill:#F5F5F5;" cx="250" cy="416.238" rx="193.889" ry="11.323"/>
</g>
<g id="Speedometer">
	<g>
		<g>
			<path style="fill:#263238;" d="M166.527,113.939l-0.628-0.778c4.404-3.552,9.015-6.9,13.705-9.952l0.546,0.838
				C175.488,107.081,170.905,110.409,166.527,113.939z"/>
			<path style="fill:#263238;" d="M159.146,120.253l-0.672-0.741c1.338-1.213,2.714-2.421,4.088-3.589l0.647,0.762
				C161.844,117.846,160.476,119.046,159.146,120.253z"/>
			
				<ellipse transform="matrix(0.7521 -0.659 0.659 0.7521 -65.7756 187.5274)" style="fill:#263238;" cx="216.408" cy="181.205" rx="115.245" ry="81.186"/>
			
				<ellipse transform="matrix(0.7521 -0.659 0.659 0.7521 -65.7756 187.5275)" style="fill:#FFFFFF;" cx="216.408" cy="181.205" rx="99.97" ry="70.426"/>
			<path style="fill:#407BFF;" d="M237.152,103.893c-43.291,3.505-87.672,40.959-99.129,83.657l156.769-12.691
				C306.249,132.161,280.442,100.388,237.152,103.893z"/>
			<path style="opacity:0.7;fill:#FFFFFF;" d="M138.023,187.55l78.385-6.346l-40.758-50.18
				C157.711,146.163,143.751,166.201,138.023,187.55z"/>
			<path style="opacity:0.4;fill:#FFFFFF;" d="M237.152,103.893c-21.645,1.752-43.563,11.992-61.502,27.131l40.758,50.18
				L237.152,103.893L237.152,103.893z"/>
			<path style="opacity:0.1;fill:#FFFFFF;" d="M237.152,103.893l-20.744,77.312l70.094-59.155
				C276.072,109.208,258.797,102.141,237.152,103.893z"/>
			
				<ellipse transform="matrix(0.7521 -0.659 0.659 0.7521 -65.7756 187.5275)" style="fill:#FFFFFF;" cx="216.408" cy="181.204" rx="40.786" ry="28.732"/>
			
				<ellipse transform="matrix(0.7521 -0.659 0.659 0.7521 -65.7756 187.5273)" style="fill:#263238;" cx="216.408" cy="181.205" rx="23.802" ry="16.768"/>
			<path style="fill:#263238;" d="M275.076,139.854c0,0-25.598,8.842-52.628,27.893l7.371,13.204
				C256.849,161.9,275.076,139.854,275.076,139.854z"/>
		</g>
		<path style="fill:#407BFF;" d="M147.036,217.057c-1.031,0-1.714-0.793-1.544-1.839c0.179-1.101,1.233-2.066,2.356-2.155
			l86.117-6.837c1.127-0.087,1.888,0.731,1.71,1.832c-0.179,1.101-1.233,2.066-2.356,2.155l-86.117,6.837
			C147.145,217.055,147.09,217.057,147.036,217.057z"/>
		<path style="fill:#407BFF;" d="M221.545,225.259c-1.032,0-1.714-0.792-1.544-1.839c0.179-1.101,1.233-2.066,2.356-2.155
			l28.034-2.226c1.126-0.091,1.888,0.731,1.709,1.832c-0.178,1.101-1.233,2.066-2.356,2.155l-28.034,2.225
			C221.654,225.257,221.599,225.259,221.545,225.259z"/>
		<path style="fill:#407BFF;" d="M79.148,261.08c-1.031,0-1.714-0.793-1.544-1.839c0.178-1.101,1.233-2.066,2.356-2.155
			l28.034-2.226c1.121-0.091,1.888,0.731,1.709,1.832c-0.178,1.101-1.233,2.066-2.356,2.155l-28.034,2.226
			C79.257,261.078,79.202,261.08,79.148,261.08z"/>
		<path style="fill:#407BFF;" d="M104.091,244.71c-1.032,0-1.714-0.793-1.544-1.839c0.179-1.101,1.233-2.066,2.356-2.155
			l83.993-6.669c1.123-0.089,1.888,0.731,1.709,1.832c-0.179,1.101-1.233,2.066-2.356,2.155l-83.993,6.668
			C104.2,244.708,104.145,244.71,104.091,244.71z"/>
	</g>
</g>
<g id="Character_1_">
	<g>
		<polygon style="fill:#FF8B7B;" points="284.392,334.509 287.951,341.703 305.559,335.374 301.999,328.18 		"/>
		<polygon style="fill:#FF8B7B;" points="198.766,393.639 204.12,399.626 217.722,384.18 211.132,379.597 		"/>
		<path style="fill:#263238;" d="M205.339,399.028l-3.638-9.084c-0.122-0.305-0.436-0.475-0.755-0.41l-7.104,1.452
			c-0.737,0.151-1.16,0.978-0.866,1.676c1.22,2.9,2.243,4.958,3.717,8.639c0.907,2.265,3.411,9.199,4.664,12.326
			c1.225,3.059,4.458,2.171,4.221,0.767c-1.064-6.296-1.094-11.387-0.205-13.954C205.533,399.977,205.517,399.474,205.339,399.028z"
			/>
		<path style="fill:#263238;" d="M288.759,341.241l-3.887-7.857c-0.146-0.294-0.476-0.448-0.794-0.369l-7.098,1.743
			c-0.736,0.181-1.115,0.995-0.768,1.668c1.45,2.81,3.643,6.823,5.405,10.386c2.061,4.165,2.342,4.295,4.759,9.179
			c1.461,2.953,4.853,2.296,4.512,0.926c-1.554-6.237-2.424-7.318-1.832-13.665C289.121,342.561,289.066,341.862,288.759,341.241z"
			/>
		<path style="fill:#FF8B7B;" d="M357.969,205.238c-0.368,2.599-0.768,5.401-1.079,8.116c-0.306,2.738-0.614,5.47-0.844,8.199
			c-0.463,5.439-0.77,10.904-0.483,16.061c0.026,0.649,0.057,1.295,0.134,1.907l0.179,1.781c0.065,0.638,0.173,0.954,0.353,1.291
			c0.187,0.33,0.611,0.738,1.364,1.097c0.739,0.366,1.738,0.673,2.843,0.861c2.226,0.395,4.82,0.416,7.44,0.275
			c1.313-0.087,2.651-0.188,3.991-0.344c1.321-0.155,2.72-0.372,3.964-0.562l1.935,5.707c-1.456,0.693-2.798,1.222-4.236,1.738
			c-1.42,0.51-2.865,0.984-4.354,1.358c-1.486,0.388-3.01,0.711-4.589,0.929c-1.578,0.224-3.213,0.368-4.936,0.32
			c-1.721-0.049-3.543-0.236-5.479-0.834c-1.911-0.6-4.009-1.671-5.738-3.45c-1.751-1.756-2.858-4.126-3.319-6.272
			c-0.074-0.304-0.101-0.478-0.136-0.672l-0.104-0.586l-0.206-1.174c-0.152-0.79-0.248-1.558-0.336-2.324
			c-0.754-6.161-0.682-12.088-0.385-17.972c0.192-2.934,0.402-5.858,0.762-8.76c0.357-2.924,0.709-5.753,1.268-8.756
			L357.969,205.238z"/>
		<path style="fill:#407BFF;" d="M345.19,197.954c-5.259,5.588-3.14,19.697-3.14,19.697l14.777,2.39c0,0,3.434-8.048,2.143-16.251
			C357.388,193.734,350.939,191.846,345.19,197.954z"/>
		<path style="opacity:0.2;" d="M350.025,204.189c-2.444-3.144-5.017-4.261-6.365-4.005c-3.27,6.406-1.609,17.467-1.609,17.467
			l10.467,1.694C353.699,216.109,353.855,209.104,350.025,204.189z"/>
		<path style="fill:#FF8B7B;" d="M373.945,244.788l8.56-5.621l1.908,8.707c0,0-5.332,5.392-9.773,1.591L373.945,244.788z"/>
		<polygon style="fill:#FF8B7B;" points="387.78,237.289 388.772,244.813 384.413,247.873 382.505,239.166 		"/>
		<polygon style="opacity:0.2;" points="305.553,335.375 296.478,338.638 292.917,331.441 301.992,328.177 		"/>
		<polygon style="opacity:0.2;" points="211.127,379.6 217.72,384.184 211.343,391.42 204.75,386.835 		"/>
		<path style="fill:#407BFF;" d="M314.738,178.714c-6.077,31.104-22.268,59.18-24.533,65.374
			c5.806,2.432,27.694,11.554,39.627,16.525c22.248-33.116,25.656-57.075,26.169-62.873c0.074-0.841-0.291-1.65-0.972-2.148
			c-0.948-0.695-2.471-1.775-4.318-2.963c-0.993-0.638-2.074-1.305-3.219-1.963c-0.63-0.368-1.279-0.724-1.942-1.077
			c-4.284-2.261-11.687-5.152-16.849-7.022c-1.082-0.389-2.196-0.762-3.28-1.106c-1.01-0.313-2.008-0.607-2.955-0.87
			C318.176,179.391,314.738,178.714,314.738,178.714z"/>
		<g>
			<path style="fill:#FFFFFF;" d="M338.559,223.074l2.187,0.552c-1.525,1.459-3.235,2.472-5.128,3.039
				c-2.169,0.652-4.421,0.683-6.755,0.094c-2.259-0.57-3.979-1.511-5.159-2.822c-1.181-1.311-1.721-2.942-1.621-4.893
				c0.1-1.951,0.68-3.955,1.741-6.013c1.164-2.259,2.703-4.248,4.618-5.968c1.915-1.72,3.914-2.868,5.999-3.446
				c2.084-0.578,4.143-0.61,6.176-0.097c1.725,0.435,3.055,1.216,3.991,2.343c0.936,1.126,1.384,2.505,1.345,4.135
				c-0.039,1.63-0.502,3.305-1.388,5.025c-1.056,2.05-2.548,3.767-4.476,5.152c-2.425,1.75-4.692,2.359-6.8,1.826
				c-0.568-0.143-0.936-0.368-1.103-0.674c-0.167-0.306-0.183-0.696-0.047-1.17c-1.28,0.713-2.447,0.936-3.501,0.67
				c-1.136-0.287-1.842-0.985-2.117-2.095c-0.275-1.11-0.019-2.428,0.768-3.956c0.973-1.889,2.314-3.5,4.021-4.831
				c2.073-1.621,3.965-2.215,5.676-1.783c1.218,0.308,1.837,1.081,1.855,2.322l0.946-1.274l2.71,0.684l-6.005,8.255
				c-0.378,0.523-0.608,0.864-0.691,1.025c-0.104,0.201-0.142,0.362-0.115,0.482c0.027,0.12,0.095,0.194,0.205,0.222
				c0.328,0.083,0.873-0.043,1.633-0.378c1.013-0.435,2-1.112,2.962-2.032c0.961-0.92,1.726-1.931,2.293-3.032
				c1.019-1.978,1.262-3.786,0.729-5.424c-0.533-1.638-1.891-2.733-4.075-3.284c-1.855-0.468-3.656-0.421-5.404,0.142
				c-1.748,0.563-3.364,1.568-4.848,3.014c-1.484,1.447-2.676,3.043-3.574,4.787c-0.874,1.696-1.305,3.332-1.292,4.907
				c0.012,1.575,0.513,2.848,1.501,3.82c0.988,0.972,2.331,1.672,4.029,2.1c1.636,0.413,3.18,0.501,4.633,0.263
				C335.928,224.524,337.289,223.962,338.559,223.074z M330.013,215.316c-0.526,1.021-0.737,1.817-0.633,2.388
				c0.104,0.571,0.416,0.923,0.936,1.054c0.39,0.098,0.814,0.078,1.273-0.06c0.343-0.095,0.73-0.284,1.161-0.565
				c0.615-0.399,1.297-1.035,2.045-1.909c0.748-0.874,1.331-1.717,1.75-2.529c0.468-0.908,0.648-1.651,0.539-2.228
				c-0.109-0.577-0.437-0.935-0.984-1.073c-0.589-0.149-1.271-0.019-2.046,0.39c-0.775,0.408-1.544,1.075-2.307,2
				C330.985,213.708,330.407,214.553,330.013,215.316z"/>
		</g>
		<path style="fill:#FF8B7B;" d="M338.294,164.45c-1.197,5.863-4.276,16.236-9.576,18.272c1.725,4.156,4.166,9.145,10.508,12.054
			c6.342,2.909,7.063-1.986,6.337-5.031c-5.442-3.963-3.417-8.382-0.608-12.155L338.294,164.45z"/>
		<path style="opacity:0.2;" d="M341.008,169.81l3.943,7.773c-0.668,0.891-1.286,1.82-1.766,2.773
			c-2.17-1.296-4.285-5.153-3.522-7.673C340.044,171.427,340.578,170.289,341.008,169.81z"/>
		<path style="fill:#263238;" d="M354.28,164.67c6.272,0.457,11.819-15.18,2.674-17.002c-6.171-1.23-6.111,2.467-6.767,6.498
			S350.305,164.38,354.28,164.67z"/>
		<path style="fill:#FF8B7B;" d="M339.013,156.75c-1.616,7.801-2.958,12.284-0.154,17.276c4.218,7.509,14.644,6.571,18.558-0.59
			c3.523-6.445,5.573-18.119-1.107-23.215C349.73,145.201,340.629,148.949,339.013,156.75z"/>
		<path style="fill:#263238;" d="M337.665,162.33c6.272,0.457,10.471-13.845,1.326-15.667c-6.171-1.23-6.692,2.377-6.596,6.238
			C332.497,156.984,333.691,162.04,337.665,162.33z"/>
		<path style="fill:#263238;" d="M342.734,151.389c4.222,2.055,24.611,6.444,23.444-2.333c-1.167-8.778-12.056-12.833-12.056-12.833
			s6.333,6.945,1.111,5.278c-5.222-1.667-6.735-2.889-13.006-4c0,0,6.165,5.111-0.994,3.667c-7.159-1.445-12.167,1.944-12.167,1.944
			s5.778,3.307,5.278,11.268C333.861,162.087,342.734,151.389,342.734,151.389z"/>
		<path style="fill:#FF8B7B;" d="M334.035,162.695c0.293,1.975,1.43,3.616,2.711,4.553c1.927,1.41,3.678-0.212,3.804-2.553
			c0.113-2.107-0.754-5.381-3.006-5.859C335.325,158.366,333.699,160.437,334.035,162.695z"/>
		<path style="fill:#263238;" d="M303.916,249.811l-8.339,26.855l42.931,27c-7.412,12.361-45.057,24.661-45.057,24.661l6.022,12.184
			c0,0,52.425-4.032,63.058-27.179c10.229-22.26-32.699-52.721-32.699-52.721L303.916,249.811z"/>
		<path style="opacity:0.2;" d="M309.49,285.42l-7.46-4.69l9.22-13.4C311.25,267.33,311.48,278.07,309.49,285.42z"/>
		<path style="opacity:0.2;" d="M309.49,285.42l-7.46-4.69l9.22-13.4C311.25,267.33,311.48,278.07,309.49,285.42z"/>
		<path style="fill:#263238;" d="M320.53,256.737c0,0-34.615,57.579-48.907,76.258c-15.65,20.454-56.174,59.021-56.174,59.021
			l-12.07-8.393c0,0,34.971-38.579,48.189-59.931c15.056-24.321,38.637-79.604,38.637-79.604L320.53,256.737z"/>
		<polygon style="fill:#407BFF;" points="216.713,393.281 202.499,383.398 205.452,379.152 221.532,389.923 		"/>
		<polygon style="fill:#407BFF;" points="299.947,342.182 292.764,327.666 297.454,325.345 305.73,341.45 		"/>
		<path style="fill:#263238;" d="M350.068,162.06c-0.17,0.625,0.023,1.221,0.432,1.332c0.408,0.111,0.877-0.305,1.047-0.93
			c0.17-0.625-0.023-1.221-0.432-1.332S350.238,161.435,350.068,162.06z"/>
		<path style="fill:#263238;" d="M357.129,163.98c-0.17,0.625,0.023,1.221,0.432,1.332c0.408,0.111,0.877-0.305,1.047-0.93
			c0.17-0.625-0.023-1.221-0.432-1.332C357.768,162.939,357.299,163.356,357.129,163.98z"/>
		<path style="fill:#FF5652;" d="M354.8,163.681c0,0,0.44,3.991,1.531,6.155c-1.386,0.731-3.137-0.252-3.137-0.252L354.8,163.681z"
			/>
		<path style="fill:#263238;" d="M350.106,170.539c-2.289-0.967-2.943-2.916-2.972-3.007c-0.032-0.1,0.023-0.207,0.122-0.239
			c0.1-0.032,0.207,0.023,0.239,0.122c0.007,0.023,0.775,2.289,3.509,3.032c0.101,0.028,0.161,0.132,0.133,0.233
			c-0.028,0.101-0.132,0.161-0.233,0.133C350.619,170.736,350.353,170.643,350.106,170.539z"/>
		<path style="fill:#263238;" d="M348.511,159.187c-0.058-0.025-0.111-0.064-0.153-0.118c-0.128-0.166-0.098-0.405,0.069-0.533
			c1.665-1.286,3.329-0.726,3.399-0.702c0.199,0.069,0.303,0.286,0.234,0.484c-0.069,0.198-0.285,0.302-0.482,0.234l0,0
			c-0.055-0.018-1.357-0.441-2.685,0.585C348.779,159.225,348.633,159.239,348.511,159.187z"/>
		<path style="fill:#263238;" d="M360.832,162.379c-0.113-0.048-0.201-0.15-0.226-0.28c-0.312-1.65-1.565-2.199-1.618-2.221
			c-0.193-0.082-0.284-0.304-0.203-0.497c0.081-0.193,0.301-0.285,0.495-0.205c0.069,0.031,1.684,0.716,2.074,2.783
			c0.039,0.206-0.097,0.405-0.303,0.444C360.974,162.417,360.899,162.407,360.832,162.379z"/>
		<g>
			<path style="fill:#407BFF;" d="M205.046,402.067c-0.276-0.689-0.433-1.496-0.518-2.068c-0.011-0.076,0.023-0.154,0.088-0.196
				c0.064-0.042,0.146-0.042,0.207,0.002c0.276,0.197,2.691,1.949,2.604,2.959c-0.013,0.157-0.088,0.375-0.37,0.523
				c-0.378,0.199-0.736,0.215-1.064,0.047C205.58,403.122,205.273,402.634,205.046,402.067z M204.977,400.401
				c0.257,1.377,0.692,2.33,1.192,2.586c0.219,0.112,0.457,0.098,0.726-0.043c0.132-0.069,0.154-0.145,0.159-0.203
				C207.099,402.216,205.924,401.129,204.977,400.401z"/>
			<path style="fill:#407BFF;" d="M204.54,400.043c-0.013-0.034-0.017-0.071-0.01-0.109c0.013-0.07,0.062-0.128,0.127-0.151
				c0.092-0.033,2.278-0.804,3.321-0.251c0.271,0.144,0.448,0.363,0.524,0.652c0,0,0,0,0,0c0.118,0.445-0.094,0.671-0.23,0.766
				c-0.754,0.524-2.957-0.246-3.677-0.832C204.57,400.097,204.551,400.072,204.54,400.043z M208.113,400.213
				c-0.058-0.145-0.162-0.256-0.315-0.337c-0.668-0.355-1.996-0.04-2.649,0.151c0.879,0.51,2.473,0.915,2.918,0.605
				c0.041-0.028,0.136-0.095,0.072-0.336l0,0C208.132,400.267,208.123,400.239,208.113,400.213z"/>
			<path style="fill:#407BFF;" d="M288.115,342.441c-0.009-0.07,0.022-0.14,0.081-0.181c0.067-0.046,0.155-0.044,0.22,0.004
				c0.331,0.243,3.228,2.41,3.173,3.525c-0.011,0.215-0.119,0.39-0.314,0.506h0c-0.327,0.194-0.659,0.224-0.987,0.091
				c-1.089-0.443-1.826-2.645-2.168-3.919C288.118,342.458,288.116,342.449,288.115,342.441z M291.207,345.694
				c-0.081-0.635-1.454-1.908-2.563-2.779c0.522,1.719,1.177,2.869,1.788,3.118c0.215,0.087,0.428,0.066,0.65-0.066
				c0.086-0.051,0.124-0.11,0.129-0.197C291.211,345.746,291.21,345.72,291.207,345.694z"/>
			<path style="fill:#407BFF;" d="M288.115,342.441c-0.002-0.018-0.002-0.036,0.001-0.055c0.011-0.067,0.057-0.123,0.12-0.147
				c0.086-0.033,2.12-0.798,3.324-0.254c0.367,0.166,0.623,0.435,0.76,0.8l0,0c0.184,0.492,0.014,0.745-0.162,0.87
				c-0.748,0.534-3.156-0.417-3.975-1.092C288.145,342.532,288.121,342.488,288.115,342.441z M292.015,343.11
				c-0.007-0.052-0.022-0.115-0.051-0.191v0c-0.101-0.271-0.285-0.463-0.56-0.587c-0.791-0.357-2.077-0.04-2.688,0.148
				c0.971,0.623,2.772,1.187,3.221,0.867C291.965,343.326,292.036,343.276,292.015,343.11z M292.142,342.852l0.001,0.005
				L292.142,342.852z"/>
		</g>
		<g>
			<path style="fill:#FF8B7B;" d="M315.047,192.323l-3.153-2.11c-1.089-0.715-2.2-1.407-3.316-2.09
				c-2.226-1.376-4.491-2.676-6.769-3.919c-2.284-1.232-4.587-2.398-6.916-3.41c-1.164-0.53-2.334-0.967-3.5-1.449l-1.756-0.62
				l-0.44-0.155l-0.22-0.078c-0.058-0.02-0.016-0.007-0.028-0.015c0.009-0.018-0.072-0.037-0.165-0.064
				c-0.456-0.087-1.461-0.039-2.506,0.143c-1.065,0.19-2.222,0.487-3.397,0.857c-2.363,0.724-4.8,1.681-7.231,2.713
				c-4.847,2.093-9.793,4.474-14.587,6.905l-3.397-4.978c4.377-3.688,8.891-7.007,13.837-9.984c2.473-1.484,5.031-2.882,7.828-4.105
				c1.403-0.603,2.873-1.16,4.486-1.626c1.632-0.449,3.379-0.858,5.682-0.785c0.592,0.033,1.199,0.086,1.879,0.23l0.474,0.105
				l0.275,0.07l0.551,0.14l2.204,0.571c1.433,0.435,2.883,0.861,4.265,1.391c2.803,1.002,5.512,2.151,8.13,3.439
				c2.632,1.266,5.182,2.657,7.669,4.143c1.234,0.759,2.461,1.529,3.674,2.329c1.239,0.806,2.367,1.595,3.663,2.572L315.047,192.323
				z"/>
			<path style="fill:#407BFF;" d="M326.977,183.833c-1.77-4.383-18.5-10.375-18.5-10.375l-5.404,14.124
				c0,0,5.848,3.863,10.698,6.768C323.039,199.904,330.458,192.454,326.977,183.833z"/>
			<path style="fill:#FF8B7B;" d="M262.705,186.929l-3.392,7.354l-5.17-6.699c0,0,3.892-6.568,6.68-4.002L262.705,186.929z"/>
			<polygon style="fill:#FF8B7B;" points="252.155,196.588 249.538,190.71 254.143,187.584 259.313,194.283 			"/>
		</g>
	</g>
</g>
</svg>
